<svg width="49" height="48" viewBox="0 0 49 48" fill="none" xmlns="http://www.w3.org/2000/svg">
<g filter="url(#filter0_i_123_97)">
<path fill-rule="evenodd" clip-rule="evenodd" d="M10.6301 6.63676C14.3407 3.78285 18.9899 2.08593 24.0392 2.08593C36.1761 2.08593 46.015 11.897 46.015 23.9995C46.015 24.6049 45.9904 25.2043 45.9422 25.7968C45.8961 26.3632 46.3191 26.8595 46.8871 26.9055C47.455 26.9514 47.9528 26.5296 47.9989 25.9632C48.0516 25.3154 48.0784 24.6605 48.0784 23.9995C48.0784 10.7606 37.3157 0.0283203 24.0392 0.0283203C18.3443 0.0283203 13.1094 2.00431 8.99041 5.30539C8.72144 5.52094 8.56662 5.84577 8.56662 6.1873V32.0611C8.56662 33.0506 9.75042 33.5636 10.4759 32.8884L16.9291 26.8824L23.1477 32.8696C23.8682 33.5633 25.0709 33.0542 25.0709 32.0555V10.4597C25.0709 9.89155 24.609 9.43094 24.0392 9.43094C23.4694 9.43094 23.0075 9.89155 23.0075 10.4597V29.8744L17.7282 24.7916C17.2938 24.3734 16.607 24.3676 16.1656 24.7784L10.6301 29.9303V6.63676ZM29.5082 9.43094C30.078 9.43094 30.5399 9.89155 30.5399 10.4597V31.269H45.3449C46.1438 31.269 46.6952 32.0722 46.3998 32.8165C42.8779 41.6908 34.1953 47.9707 24.0392 47.9707C10.7627 47.9707 0 37.2384 0 23.9995C0 19.1389 1.45185 14.6134 3.94695 10.8343C4.26028 10.3597 4.9001 10.2283 5.37602 10.5407C5.85194 10.8532 5.98375 11.4912 5.67041 11.9657C3.39029 15.4192 2.06345 19.5533 2.06345 23.9995C2.06345 36.1021 11.9023 45.9131 24.0392 45.9131C32.8295 45.9131 40.4166 40.7663 43.931 33.3266H29.6114C28.9846 33.3266 28.4765 32.82 28.4765 32.1949V10.4597C28.4765 9.89155 28.9384 9.43094 29.5082 9.43094Z" fill="#616161"/>
</g>
<defs>
<filter id="filter0_i_123_97" x="0" y="0.0283203" width="48.0786" height="48.9424" filterUnits="userSpaceOnUse" color-interpolation-filters="sRGB">
<feFlood flood-opacity="0" result="BackgroundImageFix"/>
<feBlend mode="normal" in="SourceGraphic" in2="BackgroundImageFix" result="shape"/>
<feColorMatrix in="SourceAlpha" type="matrix" values="0 0 0 0 0 0 0 0 0 0 0 0 0 0 0 0 0 0 127 0" result="hardAlpha"/>
<feOffset dy="1"/>
<feGaussianBlur stdDeviation="2"/>
<feComposite in2="hardAlpha" operator="arithmetic" k2="-1" k3="1"/>
<feColorMatrix type="matrix" values="0 0 0 0 0 0 0 0 0 0 0 0 0 0 0 0 0 0 0.7 0"/>
<feBlend mode="normal" in2="shape" result="effect1_innerShadow_123_97"/>
</filter>
</defs>
</svg>
