<svg xmlns="http://www.w3.org/2000/svg" id="contact-banner" width="540.055" height="336.697" viewBox="0 0 540.055 336.697"><g id="wave_line" data-name="wave line" transform="translate(925.064 252.759)"><path id="Path_18876" data-name="Path 18876" d="M-439.017,16.169C-476.737-96.992-352.764-113.908-327.61-104.887c27.531,9.873,3.21,49.26-2.462,33.17-3.62-10.267,56.621-51.89,92.951-10.427s4.888,92.335-1.013,82.328C-247.1-15.021-198.386,7.4-241.37,25.818" transform="translate(-208.441 -62.749)" fill="none" stroke="#7eb3ff" stroke-miterlimit="10" stroke-width="1.405" stroke-dasharray="8.378"></path><path id="wave" d="M-467.051-105.57c2.549,0,2.549,5.042,5.1,5.042s2.552-5.042,5.1-5.042,2.551,5.042,5.1,5.042,2.553-5.042,5.106-5.042,2.551,5.042,5.1,5.042,2.553-5.042,5.106-5.042,2.553,5.042,5.106,5.042,2.548-5.042,5.1-5.042,2.552,5.042,5.1,5.042,2.555-5.042,5.11-5.042,2.555,5.042,5.11,5.042,2.556-5.042,5.112-5.042,2.56,5.042,5.119,5.042,2.56-5.042,5.121-5.042" transform="translate(-199.324 -63.354)" fill="none" stroke="#003e99" stroke-miterlimit="10" stroke-width="1.782"></path></g><g id="chart" transform="translate(925.845 249.452)"><g id="Group_13135" data-name="Group 13135" transform="translate(-509.51 -220.544)"><rect id="Rectangle_2126" data-name="Rectangle 2126" width="123.72" height="97.026" transform="translate(0 11.256)" fill="#e9f6ff"></rect><rect id="Rectangle_2127" data-name="Rectangle 2127" width="123.72" height="11.647" transform="translate(0)" fill="#d4edff"></rect><path id="Path_18877" data-name="Path 18877" d="M-177.79-189.4a2.334,2.334,0,0,1-2.329,2.332,2.331,2.331,0,0,1-2.33-2.332,2.326,2.326,0,0,1,2.33-2.327A2.329,2.329,0,0,1-177.79-189.4Z" transform="translate(186.329 194.684)" fill="#074fdf"></path><path id="Path_18878" data-name="Path 18878" d="M-164.733-189.4a2.331,2.331,0,0,1-2.329,2.332,2.332,2.332,0,0,1-2.33-2.332,2.328,2.328,0,0,1,2.33-2.327A2.327,2.327,0,0,1-164.733-189.4Z" transform="translate(180.646 194.684)" fill="#8dcfff"></path><path id="Path_18879" data-name="Path 18879" d="M-151.674-189.4a2.332,2.332,0,0,1-2.33,2.332,2.332,2.332,0,0,1-2.329-2.332A2.327,2.327,0,0,1-154-191.725,2.328,2.328,0,0,1-151.674-189.4Z" transform="translate(174.963 194.684)" fill="#acd4f8"></path></g><g id="Group_13163" data-name="Group 13163" transform="translate(-497.867 -202.216)"><g id="Group_13162" data-name="Group 13162" transform="translate(0 0)"><g id="Group_13158" data-name="Group 13158"><g id="Group_13136" data-name="Group 13136" transform="translate(0.198 62.843)"><path id="Path_18880" data-name="Path 18880" d="M-167.414-50.746h-.313v-2.077l-.628.23v-.284l.892-.335h.049Z" transform="translate(168.355 53.232)" fill="#9ac7f7"></path><path id="Path_18881" data-name="Path 18881" d="M-163.541-51.809a1.43,1.43,0,0,1-.187.814.665.665,0,0,1-.585.267.666.666,0,0,1-.581-.26,1.346,1.346,0,0,1-.2-.778v-.416a1.4,1.4,0,0,1,.187-.8.67.67,0,0,1,.586-.262.676.676,0,0,1,.583.252,1.356,1.356,0,0,1,.193.783Zm-.311-.426a1.148,1.148,0,0,0-.111-.577.384.384,0,0,0-.353-.181.38.38,0,0,0-.348.18,1.113,1.113,0,0,0-.114.555v.5a1.182,1.182,0,0,0,.115.587.383.383,0,0,0,.351.189.379.379,0,0,0,.343-.179,1.135,1.135,0,0,0,.117-.562Z" transform="translate(166.934 53.249)" fill="#9ac7f7"></path></g><g id="Group_13137" data-name="Group 13137" transform="translate(0.068 51.274)"><path id="Path_18882" data-name="Path 18882" d="M-166.931-71.246h-1.607v-.224l.849-.943a1.959,1.959,0,0,0,.26-.347.569.569,0,0,0,.072-.277.439.439,0,0,0-.115-.315.412.412,0,0,0-.311-.123.486.486,0,0,0-.362.132.512.512,0,0,0-.128.369h-.311a.72.72,0,0,1,.219-.548.805.805,0,0,1,.583-.208.776.776,0,0,1,.541.179.613.613,0,0,1,.2.477,1.4,1.4,0,0,1-.46.863l-.658.713h1.231Z" transform="translate(168.585 73.732)" fill="#9ac7f7"></path><path id="Path_18883" data-name="Path 18883" d="M-163.541-72.292a1.43,1.43,0,0,1-.187.814.665.665,0,0,1-.585.267.666.666,0,0,1-.581-.26,1.346,1.346,0,0,1-.2-.778v-.416a1.4,1.4,0,0,1,.187-.8.67.67,0,0,1,.586-.262.675.675,0,0,1,.583.253,1.352,1.352,0,0,1,.193.782Zm-.311-.426a1.15,1.15,0,0,0-.111-.577.383.383,0,0,0-.353-.181.379.379,0,0,0-.348.18,1.113,1.113,0,0,0-.114.555v.5a1.182,1.182,0,0,0,.115.587.384.384,0,0,0,.351.19.379.379,0,0,0,.343-.18,1.134,1.134,0,0,0,.117-.561Z" transform="translate(167.064 73.732)" fill="#9ac7f7"></path></g><g id="Group_13138" data-name="Group 13138" transform="translate(0.069 39.705)"><path id="Path_18884" data-name="Path 18884" d="M-168.084-93.107h.234a.51.51,0,0,0,.347-.116.388.388,0,0,0,.127-.305.38.38,0,0,0-.428-.432.441.441,0,0,0-.323.116.4.4,0,0,0-.121.306h-.313a.63.63,0,0,1,.213-.485.782.782,0,0,1,.543-.193.763.763,0,0,1,.543.183.663.663,0,0,1,.2.511.55.55,0,0,1-.1.31.626.626,0,0,1-.283.224.606.606,0,0,1,.313.212.592.592,0,0,1,.109.363.671.671,0,0,1-.215.524.808.808,0,0,1-.56.194.821.821,0,0,1-.562-.188.616.616,0,0,1-.217-.493h.313a.4.4,0,0,0,.126.31.481.481,0,0,0,.339.116.475.475,0,0,0,.345-.118.457.457,0,0,0,.119-.338.412.412,0,0,0-.132-.329.574.574,0,0,0-.379-.117h-.234Z" transform="translate(168.582 94.215)" fill="#9ac7f7"></path><path id="Path_18885" data-name="Path 18885" d="M-163.541-92.775a1.428,1.428,0,0,1-.187.814.664.664,0,0,1-.585.267.667.667,0,0,1-.581-.26,1.343,1.343,0,0,1-.2-.778v-.416a1.4,1.4,0,0,1,.187-.8.669.669,0,0,1,.586-.263.675.675,0,0,1,.583.253,1.353,1.353,0,0,1,.193.783Zm-.311-.426a1.151,1.151,0,0,0-.111-.577.384.384,0,0,0-.353-.181.38.38,0,0,0-.348.18,1.109,1.109,0,0,0-.114.554v.5a1.181,1.181,0,0,0,.115.587.384.384,0,0,0,.351.19.379.379,0,0,0,.343-.179,1.138,1.138,0,0,0,.117-.562Z" transform="translate(167.062 94.215)" fill="#9ac7f7"></path></g><g id="Group_13139" data-name="Group 13139" transform="translate(0 28.132)"><path id="Path_18886" data-name="Path 18886" d="M-167.274-113.016h.339v.255h-.339v.569h-.315v-.569h-1.116v-.184l1.1-1.7h.332Zm-1.077,0h.762v-1.2l-.036.068Z" transform="translate(168.705 114.678)" fill="#9ac7f7"></path><path id="Path_18887" data-name="Path 18887" d="M-163.541-113.264a1.43,1.43,0,0,1-.187.814.665.665,0,0,1-.585.267.667.667,0,0,1-.581-.26,1.343,1.343,0,0,1-.2-.778v-.416a1.4,1.4,0,0,1,.187-.8.67.67,0,0,1,.586-.262.675.675,0,0,1,.583.252,1.356,1.356,0,0,1,.193.783Zm-.311-.426a1.149,1.149,0,0,0-.111-.577.384.384,0,0,0-.353-.181.38.38,0,0,0-.348.18,1.113,1.113,0,0,0-.114.555v.5a1.182,1.182,0,0,0,.115.587.383.383,0,0,0,.351.189.379.379,0,0,0,.343-.179,1.135,1.135,0,0,0,.117-.562Z" transform="translate(167.132 114.704)" fill="#9ac7f7"></path></g><g id="Group_13140" data-name="Group 13140" transform="translate(0.169 16.563)"><path id="Path_18888" data-name="Path 18888" d="M-168.316-133.906l.125-1.224h1.256v.289h-.992l-.073.668a.792.792,0,0,1,.409-.106.673.673,0,0,1,.532.222.862.862,0,0,1,.2.6.833.833,0,0,1-.206.6.741.741,0,0,1-.571.219.772.772,0,0,1-.53-.18.721.721,0,0,1-.236-.5h.3a.494.494,0,0,0,.149.317.468.468,0,0,0,.321.107.421.421,0,0,0,.341-.148.618.618,0,0,0,.124-.41.575.575,0,0,0-.134-.4.46.46,0,0,0-.356-.149.513.513,0,0,0-.32.09l-.083.067Z" transform="translate(168.405 135.163)" fill="#9ac7f7"></path><path id="Path_18889" data-name="Path 18889" d="M-163.541-133.748a1.426,1.426,0,0,1-.187.813.664.664,0,0,1-.585.267.667.667,0,0,1-.581-.26,1.343,1.343,0,0,1-.2-.778v-.416a1.4,1.4,0,0,1,.187-.8.668.668,0,0,1,.586-.262.675.675,0,0,1,.583.252,1.352,1.352,0,0,1,.193.782Zm-.311-.426a1.151,1.151,0,0,0-.111-.577.384.384,0,0,0-.353-.181.38.38,0,0,0-.348.18,1.112,1.112,0,0,0-.114.554v.5a1.182,1.182,0,0,0,.115.587.384.384,0,0,0,.351.189.379.379,0,0,0,.343-.179,1.138,1.138,0,0,0,.117-.562Z" transform="translate(166.962 135.188)" fill="#9ac7f7"></path></g><g id="Group_13141" data-name="Group 13141" transform="translate(0.134 4.992)"><path id="Path_18890" data-name="Path 18890" d="M-167.263-155.619v.265h-.058a.815.815,0,0,0-.579.216.888.888,0,0,0-.249.587.664.664,0,0,1,.528-.223.633.633,0,0,1,.511.227.868.868,0,0,1,.192.582.871.871,0,0,1-.207.607.714.714,0,0,1-.552.228.7.7,0,0,1-.572-.271,1.066,1.066,0,0,1-.219-.7v-.12a1.614,1.614,0,0,1,.289-1.035,1.059,1.059,0,0,1,.86-.367Zm-.411,1.106a.5.5,0,0,0-.294.1.487.487,0,0,0-.186.241v.115a.81.81,0,0,0,.136.489.409.409,0,0,0,.342.185.392.392,0,0,0,.33-.155.64.64,0,0,0,.12-.406.635.635,0,0,0-.123-.408A.388.388,0,0,0-167.674-154.513Z" transform="translate(168.468 155.65)" fill="#9ac7f7"></path><path id="Path_18891" data-name="Path 18891" d="M-163.541-154.234a1.429,1.429,0,0,1-.187.813.664.664,0,0,1-.585.267.667.667,0,0,1-.581-.26,1.343,1.343,0,0,1-.2-.778v-.416a1.4,1.4,0,0,1,.187-.8.669.669,0,0,1,.586-.262.675.675,0,0,1,.583.252,1.353,1.353,0,0,1,.193.782Zm-.311-.426a1.148,1.148,0,0,0-.111-.577.384.384,0,0,0-.353-.181.38.38,0,0,0-.348.18,1.111,1.111,0,0,0-.114.554v.5a1.182,1.182,0,0,0,.115.587.384.384,0,0,0,.351.19.379.379,0,0,0,.343-.179,1.138,1.138,0,0,0,.117-.562Z" transform="translate(166.998 155.674)" fill="#9ac7f7"></path></g><g id="Group_13142" data-name="Group 13142" transform="translate(13.912 73.072)"><path id="Path_18892" data-name="Path 18892" d="M-143.249-32.981h-.275V-34.8l-.549.2v-.247l.781-.294h.043Z" transform="translate(144.073 35.138)" fill="#9ac7f7"></path></g><g id="Group_13143" data-name="Group 13143" transform="translate(31.606 73.053)"><path id="Path_18893" data-name="Path 18893" d="M-111.3-33H-112.7v-.2l.743-.826a1.909,1.909,0,0,0,.228-.3.508.508,0,0,0,.062-.243.385.385,0,0,0-.1-.275.356.356,0,0,0-.272-.107.423.423,0,0,0-.317.116.445.445,0,0,0-.111.321h-.273a.638.638,0,0,1,.19-.479.713.713,0,0,1,.511-.183.678.678,0,0,1,.473.158.531.531,0,0,1,.173.418,1.228,1.228,0,0,1-.4.755l-.575.623h1.078Z" transform="translate(112.746 35.172)" fill="#9ac7f7"></path></g><g id="Group_13144" data-name="Group 13144" transform="translate(49.418 73.053)"><path id="Path_18894" data-name="Path 18894" d="M-80.771-34.2h.2a.447.447,0,0,0,.3-.1.342.342,0,0,0,.111-.267.332.332,0,0,0-.375-.377.392.392,0,0,0-.283.1.354.354,0,0,0-.106.268h-.273A.548.548,0,0,1-81-35a.683.683,0,0,1,.476-.169.667.667,0,0,1,.475.162.577.577,0,0,1,.173.446.473.473,0,0,1-.09.272.562.562,0,0,1-.247.2.545.545,0,0,1,.273.186.521.521,0,0,1,.1.317.587.587,0,0,1-.189.458.708.708,0,0,1-.492.17.729.729,0,0,1-.491-.163.546.546,0,0,1-.19-.432h.276a.352.352,0,0,0,.109.271.423.423,0,0,0,.3.1.414.414,0,0,0,.3-.1.4.4,0,0,0,.1-.3.357.357,0,0,0-.115-.287.5.5,0,0,0-.332-.1h-.2Z" transform="translate(81.209 35.172)" fill="#9ac7f7"></path></g><g id="Group_13145" data-name="Group 13145" transform="translate(67.168 73.082)"><path id="Path_18895" data-name="Path 18895" d="M-48.53-33.694h.3v.224h-.3v.5H-48.8v-.5h-.979v-.162l.962-1.488h.29Zm-.943,0h.669v-1.052l-.034.059Z" transform="translate(49.782 35.12)" fill="#9ac7f7"></path></g><g id="Group_13146" data-name="Group 13146" transform="translate(85.13 73.082)"><path id="Path_18896" data-name="Path 18896" d="M-17.905-34.049l.109-1.071h1.1v.252h-.868l-.066.586a.7.7,0,0,1,.358-.093.6.6,0,0,1,.468.194.767.767,0,0,1,.171.524.738.738,0,0,1-.179.522.652.652,0,0,1-.5.19.678.678,0,0,1-.465-.158.636.636,0,0,1-.2-.437h.256a.444.444,0,0,0,.132.278.412.412,0,0,0,.281.093.369.369,0,0,0,.3-.129.545.545,0,0,0,.107-.358A.494.494,0,0,0-17.023-34a.4.4,0,0,0-.311-.13.453.453,0,0,0-.281.077l-.072.059Z" transform="translate(17.981 35.12)" fill="#9ac7f7"></path></g><g id="Group_13157" data-name="Group 13157" transform="translate(5.417)"><g id="Group_13147" data-name="Group 13147"><path id="Path_18897" data-name="Path 18897" d="M-68.926-93.55h-90.188v-70.963h90.188Zm-90.012-.177H-69.1v-70.609h-89.836Z" transform="translate(159.114 164.513)" fill="#9ac7f7"></path></g><g id="Group_13148" data-name="Group 13148" transform="translate(0.088 58.988)"><rect id="Rectangle_2128" data-name="Rectangle 2128" width="90.011" height="0.177" fill="#9ac7f7"></rect></g><g id="Group_13149" data-name="Group 13149" transform="translate(0.088 47.188)"><rect id="Rectangle_2129" data-name="Rectangle 2129" width="90.011" height="0.177" fill="#9ac7f7"></rect></g><g id="Group_13150" data-name="Group 13150" transform="translate(0.088 35.393)"><rect id="Rectangle_2130" data-name="Rectangle 2130" width="90.011" height="0.177" fill="#9ac7f7"></rect></g><g id="Group_13151" data-name="Group 13151" transform="translate(0.088 23.595)"><rect id="Rectangle_2131" data-name="Rectangle 2131" width="90.011" height="0.178" fill="#9ac7f7"></rect></g><g id="Group_13152" data-name="Group 13152" transform="translate(0.088 11.798)"><rect id="Rectangle_2132" data-name="Rectangle 2132" width="90.011" height="0.178" fill="#9ac7f7"></rect></g><g id="Group_13153" data-name="Group 13153" transform="translate(72.011 0.088)"><rect id="Rectangle_2133" data-name="Rectangle 2133" width="0.177" height="70.787" transform="translate(0)" fill="#9ac7f7"></rect></g><g id="Group_13154" data-name="Group 13154" transform="translate(54.007 0.088)"><rect id="Rectangle_2134" data-name="Rectangle 2134" width="0.177" height="70.787" fill="#9ac7f7"></rect></g><g id="Group_13155" data-name="Group 13155" transform="translate(36.004 0.088)"><rect id="Rectangle_2135" data-name="Rectangle 2135" width="0.178" height="70.787" fill="#9ac7f7"></rect></g><g id="Group_13156" data-name="Group 13156" transform="translate(18.004 0.088)"><rect id="Rectangle_2136" data-name="Rectangle 2136" width="0.177" height="70.787" fill="#9ac7f7"></rect></g></g></g><g id="Group_13161" data-name="Group 13161" transform="translate(12.353 2.876)"><rect id="Rectangle_2137" data-name="Rectangle 2137" width="4.313" height="30.116" transform="translate(0 37.883)" fill="#7eb3ff"></rect><rect id="Rectangle_2138" data-name="Rectangle 2138" width="4.312" height="30.116" transform="translate(17.984 37.883)" fill="#c5e1f9"></rect><rect id="Rectangle_2139" data-name="Rectangle 2139" width="4.314" height="30.116" transform="translate(35.969 37.883)" fill="#0450cf"></rect><rect id="Rectangle_2140" data-name="Rectangle 2140" width="4.314" height="30.116" transform="translate(53.955 37.883)" fill="#7eb3ff"></rect><rect id="Rectangle_2141" data-name="Rectangle 2141" width="4.315" height="30.116" transform="translate(71.941 37.883)" fill="#0450cf"></rect><rect id="Rectangle_2142" data-name="Rectangle 2142" width="4.313" height="5.276" transform="translate(0 32.607)" fill="#7eb3ff"></rect><rect id="Rectangle_2143" data-name="Rectangle 2143" width="4.312" height="23.22" transform="translate(17.984 14.663)" fill="#c5e1f9"></rect><rect id="Rectangle_2144" data-name="Rectangle 2144" width="4.314" height="20.416" transform="translate(53.955 17.467)" fill="#7eb3ff"></rect><rect id="Rectangle_2145" data-name="Rectangle 2145" width="4.315" height="37.883" transform="translate(71.941)" fill="#0450cf"></rect><path id="Path_18898" data-name="Path 18898" d="M-129.5-126.32a4.853,4.853,0,0,1-4.854,4.852,4.851,4.851,0,0,1-4.849-4.852,4.852,4.852,0,0,1,4.849-4.853A4.854,4.854,0,0,1-129.5-126.32Z" transform="translate(143.511 147.128)" fill="#c5e1f9"></path><g id="Group_13159" data-name="Group 13159" transform="translate(6.806 19.13)"><path id="Path_18899" data-name="Path 18899" d="M-133.351-122.468v-.84h-1.433v-.274l1.376-1.968h.451v1.916h.432v.327h-.432v.84Zm0-1.167v-1.029c0-.163.006-.324.015-.485h-.015c-.094.181-.169.313-.256.456l-.755,1.048v.01Z" transform="translate(134.784 125.551)" fill="#eaf4fe"></path><path id="Path_18900" data-name="Path 18900" d="M-128.392-125.2h-1.176l-.119.792a1.606,1.606,0,0,1,.251-.019,1.3,1.3,0,0,1,.664.166.878.878,0,0,1,.441.792,1.07,1.07,0,0,1-1.148,1.053,1.509,1.509,0,0,1-.768-.189l.1-.318a1.393,1.393,0,0,0,.66.171.679.679,0,0,0,.73-.668c0-.4-.269-.684-.886-.684a3.2,3.2,0,0,0-.426.033l.2-1.479h1.476Z" transform="translate(132.81 125.551)" fill="#eaf4fe"></path></g><line id="Line_257" data-name="Line 257" x2="3.968" transform="translate(14.016 20.809)" fill="none" stroke="#c5e1f9" stroke-miterlimit="10" stroke-width="0.764"></line><path id="Path_18901" data-name="Path 18901" d="M-33.85-147.206a4.852,4.852,0,0,1-4.853,4.852,4.852,4.852,0,0,1-4.852-4.852A4.853,4.853,0,0,1-38.7-152.06,4.853,4.853,0,0,1-33.85-147.206Z" transform="translate(101.888 156.218)" fill="#0450cf"></path><g id="Group_13160" data-name="Group 13160" transform="translate(60.956 7.28)"><path id="Path_18902" data-name="Path 18902" d="M-37.056-146.089h-1.176l-.119.792a1.718,1.718,0,0,1,.252-.019,1.3,1.3,0,0,1,.664.166.879.879,0,0,1,.441.792,1.069,1.069,0,0,1-1.148,1.053,1.505,1.505,0,0,1-.769-.19l.106-.317a1.374,1.374,0,0,0,.658.171.681.681,0,0,0,.732-.669c-.006-.4-.272-.683-.888-.683a3.093,3.093,0,0,0-.426.033l.2-1.48h1.475Z" transform="translate(38.911 146.493)" fill="#eaf4fe"></path><path id="Path_18903" data-name="Path 18903" d="M-34.644-144.179a.883.883,0,0,1,.613-.826l-.006-.014a.764.764,0,0,1-.489-.692.865.865,0,0,1,.955-.821.8.8,0,0,1,.9.759.784.784,0,0,1-.507.721v.014a.854.854,0,0,1,.622.8.95.95,0,0,1-1.048.9C-34.254-143.345-34.644-143.729-34.644-144.179Zm1.661-.019c0-.375-.262-.555-.679-.674a.67.67,0,0,0-.554.635.569.569,0,0,0,.616.588A.557.557,0,0,0-32.983-144.2Zm-1.148-1.541c0,.308.232.474.589.568a.606.606,0,0,0,.469-.559.48.48,0,0,0-.522-.5A.491.491,0,0,0-34.131-145.74Z" transform="translate(37.054 146.533)" fill="#eaf4fe"></path></g><line id="Line_258" data-name="Line 258" x2="3.968" transform="translate(68.038 9.012)" fill="none" stroke="#003e99" stroke-miterlimit="10" stroke-width="0.764"></line></g></g></g></g><g id="woman" transform="translate(0 97.396)"><path id="Path_18904" data-name="Path 18904" d="M-836.455,285l-1.477,7.977h22.6a3.265,3.265,0,0,0-2.512-3.249c-2.658-.739-9.9-2.955-11.818-5.318S-836.455,285-836.455,285Z" transform="translate(887.145 -77.308)" fill="#c5e1f9"></path><path id="Path_18905" data-name="Path 18905" d="M-841.443,189.18s-3.546-36.835-2.068-43.926,1.772-11.523,1.182-15.068-5.507-47.843-5.507-47.843l15.256-15.973h3.841s.591,36.635-2.364,58.794-4.137,64.9-4.137,64.9Z" transform="translate(891.456 17.182)" fill="#212957"></path><path id="Path_18906" data-name="Path 18906" d="M-880.027,64.8s-9.939,8.053-12.6,19.28-7.787,43.059-8.378,45.127-5.023,15.068-6.2,18.318-6.2,40.971-6.2,40.971h5.908s12.113-38.017,14.182-44.812,4.846-13.274,4.846-13.274S-869.1,90.5-865.254,80.459s4.136-14.772,4.136-14.772Z" transform="translate(919.994 17.865)" fill="#3b47bc"></path><path id="Path_18907" data-name="Path 18907" d="M-912.5,284.411s-.3,2.881-.3,3.767,1.92,3.4,2.068,4.137l.148.738h-14.477s-.3-1.477,2.068-3.4,3.1-3.25,3.4-5.688S-912.5,284.411-912.5,284.411Z" transform="translate(925.065 -77.089)" fill="#c5e1f9"></path><path id="Path_18908" data-name="Path 18908" d="M-878.907,70.424s-2.729,2.729-5.911,9.243a83.731,83.731,0,0,0-5.833,16.461c-6.081,24.326-4.976,32.583-4.976,32.583s-9.648,21.263-13.193,35.222-3.545,22.432-3.545,22.432" transform="translate(919.539 15.418)" fill="none" stroke="#7eb3ff" stroke-miterlimit="10" stroke-width="1.671"></path><path id="Path_18909" data-name="Path 18909" d="M-852.45,74.347s-4.432,8.642-9.307,8.864" transform="translate(897.514 13.711)" fill="none" stroke="#7eb3ff" stroke-miterlimit="10" stroke-width="1.671"></path><path id="Path_18910" data-name="Path 18910" d="M-863.437-38.161s-9.178-8.242-2.1-21.321c3.924-7.25,1.866-27.06-10.838-20.913s-9.263-1.517-16.435,1.9-10.349,8.562-9.383,14.176.338,16.3-4.072,18.361S-931.806-32.4-918.188-17.873-855.045-14.013-863.437-38.161Z" transform="translate(924.036 81.561)" fill="#56300d"></path><g id="Group_13164" data-name="Group 13164" transform="translate(19.895 13.087)"><path id="Path_18911" data-name="Path 18911" d="M-840.528-6.373s7.95,25.43,7.52,28.784-2.986,13.675-6.077,11.976-7.45-11.341-8.771-19.029S-862.57-17.524-840.528-6.373Z" transform="translate(873.847 36.973)" fill="#dd000b"></path><path id="Path_18912" data-name="Path 18912" d="M-864.192-10.263c-1.038,0-13.225-1.3-13.225-1.3l-8.3,3.63s-4.149-.259-3.112,6.483,11.929,32.933,14,34.23,13.962,5.921,21.523,7c4.84.691,6.916-1.383,6.916-1.383s-.433-23.512.086-24.549.778-7.261-5.186-11.929C-855.6-1.291-864.192-10.263-864.192-10.263Z" transform="translate(889.472 38.009)" fill="#fd2227"></path><path id="Path_18913" data-name="Path 18913" d="M-882.713-1.121s17.375,23.338,17.634,26.71-2.853,13.225-6.224,12.188-9.595-9.595-12.447-16.856S-896.456-9.937-882.713-1.121Z" transform="translate(889.84 34.313)" fill="#dd000b"></path><path id="Path_18914" data-name="Path 18914" d="M-868.95-41.4l1.556,16.856,10.891,1.3L-859.1-33.882Z" transform="translate(880.749 50.997)" fill="#f7b68b"></path><path id="Path_18915" data-name="Path 18915" d="M-857.65-29.277c-.29-.114-.6-.252-.931-.418a45.629,45.629,0,0,1-9.727-6.55l-.642-7.453,9.851,8.058Z" transform="translate(880.749 51.996)" fill="#ec9568"></path><path id="Path_18916" data-name="Path 18916" d="M-850.748-58.39s.778,8.557-1.556,13.485-2.074,8.817-7.26,6.224-11.151-7-12.447-9.854.778-6.742,4.149-4.927,3.111-.778,6.483-.259S-851.785-53.722-850.748-58.39Z" transform="translate(882.251 58.39)" fill="#f7b68b"></path><path id="Path_18917" data-name="Path 18917" d="M-800.129,34.254a3.537,3.537,0,0,1-2.8,1.943h-16.389a1.353,1.353,0,0,1-1.3-1.943l10.624-24.062a3.68,3.68,0,0,1,2.8-2.067h16.39a1.445,1.445,0,0,1,1.3,2.067Z" transform="translate(859.772 29.443)" fill="#194866"></path><path id="Path_18918" data-name="Path 18918" d="M-774.658,24.551c0-.778-4.664.864-4.664.864a5.733,5.733,0,0,0-.691,1.729,11.556,11.556,0,0,1-1.556,3.285,10.241,10.241,0,0,0,2.939,2.074,8.143,8.143,0,0,0,1.9.346c.778,0,2.593-4.408,2.852-5.186S-774.658,24.81-774.658,24.551Z" transform="translate(842.722 22.386)" fill="#f7b68b"></path></g><path id="Path_18919" data-name="Path 18919" d="M-831.953,24.587c.826.02-1.7,2.975-.568,3.258s8.219-3.684,8.219-3.684l2.267-.284-5.561,4.429a35.94,35.94,0,0,1,5.737-3.507,6.333,6.333,0,0,1,2.374-.354c.85-.284-7.333,5.1-7.333,5.1l3.473-1.133s1.876-.426.957.638c-.5.579-1.276.708-2.339,2.2s-6.093,5.886-11.158,6.519a9.121,9.121,0,0,0-4.252,1.7l-14.534,11.854s-8.989-.586-7.715-6.75,10.771-6.484,18.318-8.928c4.956-1.606,5.314-2.976,6.375-4.039S-834.6,24.521-831.953,24.587Z" transform="translate(897.841 35.675)" fill="#f7b68b"></path></g><g id="white_man" data-name="white man" transform="translate(330.471 129.72)"><g id="chair_white_man" data-name="chair white man" transform="translate(47.649 72.888)"><g id="Group_13166" data-name="Group 13166" transform="translate(65.753 14.078)"><path id="Path_18921" data-name="Path 18921" d="M-136.1,195.6a10.081,10.081,0,0,0,6.674-2.413c3.353-2.916,4.8-8.1,4.315-15.411-.327-4.934-2.269-9.928-4.325-15.219-3.463-8.9-7.384-18.983-5.333-32.32l-3.81-.586c-2.206,14.36,2.095,25.417,5.546,34.3,2.032,5.221,3.788,9.734,4.077,14.076.394,5.929-.629,10.154-2.966,12.216a6.389,6.389,0,0,1-5.1,1.433l-.773,3.777A9,9,0,0,0-136.1,195.6Z" transform="translate(139.181 -129.646)" fill="#367082"></path></g><g id="Group_13169" data-name="Group 13169" transform="translate(2.585 93.581)"><g id="Group_13167" data-name="Group 13167" transform="translate(3.059 17.03)"><path id="Path_18922" data-name="Path 18922" d="M-188.943,300.559l-3.754,5.726,31.532,10.1s2.107-2.014-5.631-6.058C-175.8,305.612-188.943,300.559-188.943,300.559Z" transform="translate(222.581 -300.559)" fill="#88bdda"></path><path id="Path_18923" data-name="Path 18923" d="M-217.568,300.559l3.754,5.726-31.531,10.1s-2.105-2.014,5.632-6.058C-230.706,305.612-217.568,300.559-217.568,300.559Z" transform="translate(245.607 -300.559)" fill="#88bdda"></path></g><rect id="Rectangle_2146" data-name="Rectangle 2146" width="6.589" height="23.458" transform="translate(30.602)" fill="#88bdda"></rect><g id="Group_13168" data-name="Group 13168" transform="translate(6.673 18.237)"><path id="Path_18924" data-name="Path 18924" d="M-187.779,302.7l-3.212,5.463L-164,317.8s1.8-1.921-4.817-5.784A211.2,211.2,0,0,0-187.779,302.7Z" transform="translate(218.224 -302.697)" fill="#acd5f4"></path><path id="Path_18925" data-name="Path 18925" d="M-215.2,302.7l3.209,5.463-26.99,9.638s-1.8-1.921,4.82-5.784A211.011,211.011,0,0,1-215.2,302.7Z" transform="translate(239.207 -302.697)" fill="#acd5f4"></path></g><path id="Path_18926" data-name="Path 18926" d="M-148.614,331.512a2.289,2.289,0,0,0,2.289,2.286,2.288,2.288,0,0,0,2.29-2.286,2.292,2.292,0,0,0-2.29-2.294A2.292,2.292,0,0,0-148.614,331.512Z" transform="translate(206.455 -296.001)" fill="#001f46"></path><path id="Path_18927" data-name="Path 18927" d="M-241.214,331.512a2.292,2.292,0,0,0,2.294,2.286,2.287,2.287,0,0,0,2.289-2.286,2.291,2.291,0,0,0-2.289-2.294A2.3,2.3,0,0,0-241.214,331.512Z" transform="translate(246.754 -296.001)" fill="#001f46"></path><path id="Path_18928" data-name="Path 18928" d="M-138.8,331.512a2.287,2.287,0,0,0,2.289,2.286,2.289,2.289,0,0,0,2.291-2.286,2.292,2.292,0,0,0-2.291-2.294A2.291,2.291,0,0,0-138.8,331.512Z" transform="translate(202.184 -296.001)" fill="#367082"></path><path id="Path_18929" data-name="Path 18929" d="M-251.022,331.512a2.288,2.288,0,0,0,2.29,2.286,2.286,2.286,0,0,0,2.285-2.286,2.289,2.289,0,0,0-2.285-2.294A2.292,2.292,0,0,0-251.022,331.512Z" transform="translate(251.022 -296.001)" fill="#367082"></path></g><rect id="Rectangle_2147" data-name="Rectangle 2147" width="4.819" height="8.436" transform="translate(34.156 84.984)" fill="#367082"></rect><path id="Path_18930" data-name="Path 18930" d="M-201.524,243.674a4.7,4.7,0,0,0,4.7,4.7h2.652a4.7,4.7,0,0,0,4.7-4.7h0a4.7,4.7,0,0,0-4.7-4.7h-2.652a4.7,4.7,0,0,0-4.7,4.7Z" transform="translate(232.065 -163.147)" fill="#367082"></path><path id="Path_18931" data-name="Path 18931" d="M-254.419,230.835c-.112-.553-.177-4.023-.177-4.618,0-3.795,2.45-6.869,5.478-6.869h61.047c3.023,0,5.477,3.074,5.477,6.869,0,.6-.065,4.065-.182,4.618Z" transform="translate(255.162 -154.606)" fill="#8dcfff"></path><path id="Path_18932" data-name="Path 18932" d="M-182.466,241.358c0,1.163-.677,2.106-1.518,2.106h-70.095c-.842,0-1.519-.943-1.519-2.106h0c0-1.16.677-2.1,1.519-2.1h70.095c.841,0,1.518.942,1.518,2.1Z" transform="translate(255.598 -163.27)" fill="#367082"></path><g id="Group_13170" data-name="Group 13170" transform="translate(35.369)"><path id="Path_18933" data-name="Path 18933" d="M-158.631,145.7c-1.508.111-11.076.28-12.725.3-10.476.127-19.5-1.84-20-4.42a89.415,89.415,0,0,1-.271-32.441c.448-2.578,9.6-4.543,20.3-4.413,1.679.02,11.446.19,12.983.3A87.761,87.761,0,0,0-158.631,145.7Z" transform="translate(192.977 -104.721)" fill="#8dcfff"></path><path id="Path_18934" data-name="Path 18934" d="M-133.205,105.266c1.171.014,1.99.572,1.827,1.243a87.67,87.67,0,0,0-.329,38.191c.149.675-.663,1.231-1.81,1.244h0c-1.147.016-2.21-.522-2.354-1.2a87.776,87.776,0,0,1,.249-38.284c.158-.677,1.239-1.212,2.416-1.2Z" transform="translate(168.991 -104.958)" fill="#367082"></path><path id="Path_18935" data-name="Path 18935" d="M-135.9,145.8a26.343,26.343,0,0,1-2.748.183,5.515,5.515,0,0,1-5.087-4.522,87.923,87.923,0,0,1,.148-31.948,5.622,5.622,0,0,1,5.213-4.522,27.128,27.128,0,0,1,2.8.186A87.69,87.69,0,0,0-135.9,145.8Z" transform="translate(172.152 -104.836)" fill="#7dc2f5"></path></g></g><g id="body"><path id="Path_18920" data-name="Path 18920" d="M-214.032,53.568s-27.133,11.175-32.954,18.024-16.44,14.273-13.645,19,9.547,6.342,11.49,5.106S-215.507,79.787-214.032,53.568Z" transform="translate(305.637 -9.571)" fill="#9ac7f7"></path><path id="Path_18936" data-name="Path 18936" d="M-183.287,140.466s14.682,2.553,17.873-26.172,4.149-51.7,4.149-51.7l-18.192-9.575h-15.959s-10.61,7.015-11.887,13.4.4,29.37-1.518,33.839-8.937,19.15-8.937,19.15Z" transform="translate(286.778 -9.33)" fill="#c5e1f9"></path><path id="Path_18937" data-name="Path 18937" d="M-190.925,123.331l-11.549-8.784-2.124-1.615s-4.037,5.6-2.581,9.487,12.844,6.856,14.77,6.607S-190.925,123.331-190.925,123.331Z" transform="translate(282.313 -35.406)" fill="#f7b68b"></path><path id="Path_18938" data-name="Path 18938" d="M-214.892,114.271l.654,8.328,5.045,1.781,1.375-11.448Z" transform="translate(285.531 -35.406)" fill="#ec9568"></path><path id="Path_18939" data-name="Path 18939" d="M-247.568,113.6s-7.583-1.267-9.22.358c-1.157,1.149-.3,6.516-.3,6.516s8.554,1.046,9.659-.105S-241.426,115.959-247.568,113.6Z" transform="translate(304.028 -35.492)" fill="#ec9568"></path><path id="Path_18940" data-name="Path 18940" d="M-155.373,75.651s6.717-9.017,9.175-6.373,11.642,31.085,10.678,39.992-1.837,15.764-8.248,15.987c-22.385.781-39.462-12.617-39.462-12.617l2.072-13.019s25.458,2.525,27.3,4.509S-155.084,85.242-155.373,75.651Z" transform="translate(271.752 -16.196)" fill="#9ac7f7"></path></g><g id="head" transform="matrix(0.999, 0.052, -0.052, 0.999, 4.444, -3.336)"><path id="Path_18941" data-name="Path 18941" d="M-167.522-11.973s-7.571.871-10.029-1.945,4.533-2.087,1.454.093-10.206-1.357-8.439-4.921,4.67-5.156,7.581-3.189.613,3.2-.519,1.226,3.048-6.979,6.9-.135,1.9,7.437.514,2.871,1.447-7.562,3.781-2.215-.923,8.115-1.827,5.719,6.033-7.707,6.716-3.105,1.286,10.116-2.224,10.29,4.323-12.173,7.828-2.374-3.048,6.979-3.363,4.76,11.871,1.564,2.609,5.085-5.862-.538-6.717-2.772,7.991,3.453,3.436,8.4-9.063,4.173-8.278-.873,6.162-2.581,4.591,1.635,1.114,6.608,2.127,7.013-6.355,3.707-7.918-.271S-173.444-10.356-167.522-11.973Z" transform="translate(272.441 24.329)" fill="#d3a933"></path><path id="Path_18943" data-name="Path 18943" d="M-184.487-.444l-.1-2.105,4.145-5.709s.381,1.843,7.37,2.574c10.418,1.088,1.4,4.027,1.005,8.6s1.864,6.735,3,4.61,4.726-3.213,6.445-1.064-3.131,6.115-4.225,6.623a2.637,2.637,0,0,1-1.893.219s3.975,10.936,6.032,16.337c-1.131.79-9.776,1.446-13.192,0a100.577,100.577,0,0,0-2.6-12.129l-4.418,1.873c-4.418,1.873-3.909-2.91-3.909-2.91l.512-8.881-1.755-2.852Z" transform="translate(273.862 17.335)" fill="#ffd0a1"></path></g><g id="leg" transform="translate(0 108.049)"><path id="Path_18944" data-name="Path 18944" d="M-255.162,323.473l1.7,6.383h-21.7s5.958-8.085,11.064-9.362S-255.162,323.473-255.162,323.473Z" transform="translate(311.761 -233.681)" fill="#281617"></path><path id="Path_18945" data-name="Path 18945" d="M-258.365,176.783s-34.044-7.234-42.981-6.809-11.49,1.276-11.49,8.086,3.83,78.3,3.83,78.3l14.895,1.276s1.7-51.918,0-57.875l-1.7-5.958,41.279,8.511Z" transform="translate(328.156 -168.272)" fill="#281617"></path><path id="Path_18946" data-name="Path 18946" d="M-196.394,186.975s-5.106-14.469-22.98-17.873-20.427-1.7-20.427-1.7l-22.554,87.239,15.746,5.107,22.98-61.706S-194.266,209.955-196.394,186.975Z" transform="translate(306.187 -166.974)" fill="#3b47bc"></path><path id="Path_18947" data-name="Path 18947" d="M-310.6,319.093l.851,9.788h-30.215S-319.534,317.816-310.6,319.093Z" transform="translate(339.961 -233.13)" fill="#281617"></path></g></g><g id="table" transform="translate(138.445 174.635)"><g id="Group_13176" data-name="Group 13176" transform="translate(174.373)"><path id="Path_18948" data-name="Path 18948" d="M-285.178,121.231l.029-.055-.029-1.7h-70.4v1.7s-.011.037,0,.055l.179.316c.9,1.474,2.528,1.739,4.387,1.739h61.262c1.859,0,3.48-.265,4.387-1.739Z" transform="translate(364.41 -83.169)" fill="#d0dee6"></path><path id="Path_18949" data-name="Path 18949" d="M-260.975,122.03a.066.066,0,0,0,0,.047l.175.257a2.86,2.86,0,0,0,1.029.865h10.7c1.788,0,3.349-.214,4.22-1.405l.168-.259a.3.3,0,0,0,.032-.043l-.018-.836h-16.31Z" transform="translate(323.241 -83.682)" fill="#b6c2c9"></path><g id="Group_13174" data-name="Group 13174" transform="translate(17.589 36.7)"><rect id="Rectangle_2148" data-name="Rectangle 2148" width="35.175" height="1.202" fill="#b6c2c9"></rect></g><g id="Group_13175" data-name="Group 13175"><path id="Path_18950" data-name="Path 18950" d="M-309.339,91.439l-9.127-34.591a2.3,2.3,0,0,0-2.088-1.654h-49.389a1.23,1.23,0,0,0-1.215,1.654l9.126,34.591Z" transform="translate(371.214 -55.194)" fill="#d7dfe2"></path><path id="Path_18951" data-name="Path 18951" d="M-316.124,84.816a2.382,2.382,0,0,1-2.354,3.2,4.452,4.452,0,0,1-4.042-3.2,2.383,2.383,0,0,1,2.355-3.2A4.451,4.451,0,0,1-316.124,84.816Z" transform="translate(350.071 -66.692)" fill="#b6c2c9"></path></g></g><g id="Group_13177" data-name="Group 13177" transform="translate(0 40.072)"><path id="Path_18952" data-name="Path 18952" d="M-557.986,247.895h7.207l-11.888-115.135h-10.447Z" transform="translate(633.453 -129.022)" fill="#163f59"></path><path id="Path_18953" data-name="Path 18953" d="M-571.883,138.066l4.583,34.868,5.435-37.577-.266-2.6h-9.132Z" transform="translate(632.917 -129.022)" fill="#212957"></path><path id="Path_18954" data-name="Path 18954" d="M-357.474,247.895h-7.2l11.888-115.135h10.447Z" transform="translate(542.743 -129.022)" fill="#163f59"></path><path id="Path_18955" data-name="Path 18955" d="M-334.088,138.066l-4.581,34.868-5.438-37.577.27-2.6h9.132Z" transform="translate(533.791 -129.022)" fill="#212957"></path><path id="Path_18956" data-name="Path 18956" d="M-229.644,247.895h7.206l-11.888-115.135h-10.448Z" transform="translate(490.561 -129.022)" fill="#163f59"></path><path id="Path_18957" data-name="Path 18957" d="M-243.539,138.066l13.983,35.532-3.965-38.242-.267-2.6h-9.132Z" transform="translate(490.024 -129.022)" fill="#212957"></path><path id="Path_18958" data-name="Path 18958" d="M-670.2,247.895h-7.206l11.888-115.135h10.448Z" transform="translate(678.842 -129.022)" fill="#163f59"></path><path id="Path_18959" data-name="Path 18959" d="M-649.873,138.066-663.856,173.6l3.965-38.242.267-2.6h9.132Z" transform="translate(672.943 -129.022)" fill="#212957"></path><rect id="Rectangle_2149" data-name="Rectangle 2149" width="86.869" height="6.728" transform="translate(179.452)" fill="#387bff"></rect><rect id="Rectangle_2150" data-name="Rectangle 2150" width="183.469" height="6.728" fill="#387bff"></rect></g></g><g id="green_chat" data-name="green chat" transform="translate(365.645 121.862)"><path id="Path_18960" data-name="Path 18960" d="M-238.9,11.781a3.231,3.231,0,0,1-3.23,3.231h-2.152v7.538l-7.542-7.538h-24.768a3.23,3.23,0,0,1-3.231-3.231V-15.142a3.23,3.23,0,0,1,3.231-3.231h34.462a3.231,3.231,0,0,1,3.23,3.231Z" transform="translate(279.82 18.373)" fill="#9fc400"></path><rect id="Rectangle_2151" data-name="Rectangle 2151" width="28.002" height="2.154" transform="translate(6.461 9.692)" fill="#fff"></rect><rect id="Rectangle_2152" data-name="Rectangle 2152" width="28.002" height="2.153" transform="translate(6.461 15.078)" fill="#fff"></rect><rect id="Rectangle_2153" data-name="Rectangle 2153" width="28.002" height="2.154" transform="translate(6.461 20.462)" fill="#fff"></rect></g><g id="chair" transform="translate(71.092 201.561)"><g id="Group_13183" data-name="Group 13183" transform="translate(0 14.481)"><path id="Path_18964" data-name="Path 18964" d="M-787.8,196.341a10.373,10.373,0,0,1-6.865-2.482c-3.449-3-4.941-8.335-4.438-15.852.336-5.075,2.334-10.212,4.448-15.655,3.563-9.153,7.6-19.526,5.486-33.245l3.919-.6c2.269,14.77-2.155,26.145-5.7,35.285-2.09,5.371-3.9,10.014-4.194,14.479-.405,6.1.647,10.443,3.051,12.565a6.567,6.567,0,0,0,5.24,1.474l.8,3.886A9.221,9.221,0,0,1-787.8,196.341Z" transform="translate(799.196 -128.504)" fill="#367082"></path></g><g id="Group_13186" data-name="Group 13186" transform="translate(9.637 96.259)"><g id="Group_13184" data-name="Group 13184" transform="translate(3.319 17.517)"><path id="Path_18965" data-name="Path 18965" d="M-747.415,304.308l3.862,5.89-32.433,10.389s-2.168-2.071,5.792-6.232C-760.931,309.505-747.415,304.308-747.415,304.308Z" transform="translate(776.256 -304.308)" fill="#88bdda"></path><path id="Path_18966" data-name="Path 18966" d="M-717.968,304.308l-3.862,5.89,32.433,10.389s2.166-2.071-5.793-6.232C-704.455,309.505-717.968,304.308-717.968,304.308Z" transform="translate(752.57 -304.308)" fill="#88bdda"></path></g><rect id="Rectangle_2156" data-name="Rectangle 2156" width="6.777" height="24.13" transform="translate(31.652)" fill="#88bdda"></rect><g id="Group_13185" data-name="Group 13185" transform="translate(7.038 18.76)"><path id="Path_18967" data-name="Path 18967" d="M-744.982,306.508l3.3,5.619-27.764,9.913s-1.853-1.976,4.956-5.949A217.091,217.091,0,0,1-744.982,306.508Z" transform="translate(769.673 -306.508)" fill="#acd5f4"></path><path id="Path_18968" data-name="Path 18968" d="M-716.774,306.508l-3.3,5.619,27.762,9.913s1.854-1.976-4.958-5.949A216.864,216.864,0,0,0-716.774,306.508Z" transform="translate(748.088 -306.508)" fill="#acd5f4"></path></g><path id="Path_18969" data-name="Path 18969" d="M-767.328,336.146a2.354,2.354,0,0,1-2.355,2.352,2.354,2.354,0,0,1-2.356-2.352,2.357,2.357,0,0,1,2.356-2.359A2.358,2.358,0,0,1-767.328,336.146Z" transform="translate(777.74 -299.62)" fill="#001f46"></path><path id="Path_18970" data-name="Path 18970" d="M-672.081,336.146a2.357,2.357,0,0,1-2.359,2.352,2.352,2.352,0,0,1-2.354-2.352,2.356,2.356,0,0,1,2.354-2.359A2.361,2.361,0,0,1-672.081,336.146Z" transform="translate(736.29 -299.62)" fill="#001f46"></path><path id="Path_18971" data-name="Path 18971" d="M-777.422,336.146a2.352,2.352,0,0,1-2.354,2.352,2.354,2.354,0,0,1-2.356-2.352,2.357,2.357,0,0,1,2.356-2.359A2.356,2.356,0,0,1-777.422,336.146Z" transform="translate(782.133 -299.62)" fill="#367082"></path><path id="Path_18972" data-name="Path 18972" d="M-661.986,336.146a2.354,2.354,0,0,1-2.356,2.352,2.351,2.351,0,0,1-2.351-2.352,2.355,2.355,0,0,1,2.351-2.359A2.357,2.357,0,0,1-661.986,336.146Z" transform="translate(731.894 -299.62)" fill="#367082"></path></g><rect id="Rectangle_2157" data-name="Rectangle 2157" width="4.957" height="8.677" transform="translate(42.112 87.416)" fill="#367082"></rect><path id="Path_18973" data-name="Path 18973" d="M-718.824,245.8a4.835,4.835,0,0,1-4.833,4.832h-2.727a4.835,4.835,0,0,1-4.833-4.832h0a4.833,4.833,0,0,1,4.833-4.836h2.727a4.833,4.833,0,0,1,4.833,4.836Z" transform="translate(769.612 -162.964)" fill="#367082"></path><path id="Path_18974" data-name="Path 18974" d="M-711.933,232.589c.115-.57.182-4.138.182-4.751,0-3.9-2.52-7.066-5.634-7.066H-780.18c-3.109,0-5.634,3.162-5.634,7.066,0,.613.067,4.181.189,4.751Z" transform="translate(793.372 -154.178)" fill="#8dcfff"></path><path id="Path_18975" data-name="Path 18975" d="M-786.84,243.414c0,1.2.7,2.166,1.562,2.166h72.1c.865,0,1.562-.97,1.562-2.166h0c0-1.194-.7-2.163-1.562-2.163h-72.1c-.866,0-1.562.969-1.562,2.163Z" transform="translate(793.819 -163.09)" fill="#367082"></path><g id="Group_13187" data-name="Group 13187" transform="translate(7.112)"><path id="Path_18976" data-name="Path 18976" d="M-780.846,145.017c1.552.114,11.393.287,13.089.309,10.776.13,20.055-1.892,20.572-4.546a91.977,91.977,0,0,0,.279-33.369c-.461-2.652-9.878-4.674-20.882-4.539-1.728.021-11.774.2-13.354.312A90.264,90.264,0,0,1-780.846,145.017Z" transform="translate(784.227 -102.866)" fill="#8dcfff"></path><path id="Path_18977" data-name="Path 18977" d="M-784.7,103.427c-1.205.014-2.047.587-1.879,1.279a90.19,90.19,0,0,1,.338,39.283c-.153.694.681,1.266,1.861,1.279h0c1.18.018,2.273-.537,2.421-1.231a90.284,90.284,0,0,0-.256-39.379c-.162-.7-1.274-1.247-2.485-1.231Z" transform="translate(786.603 -103.11)" fill="#367082"></path><path id="Path_18978" data-name="Path 18978" d="M-784.344,145.115a27.058,27.058,0,0,0,2.826.189,5.672,5.672,0,0,0,5.232-4.652,90.419,90.419,0,0,0-.152-32.862,5.783,5.783,0,0,0-5.362-4.652,27.727,27.727,0,0,0-2.876.191A90.188,90.188,0,0,1-784.344,145.115Z" transform="translate(785.764 -102.984)" fill="#7dc2f5"></path></g></g><g id="black_man" data-name="black man" transform="translate(60.368 129.727)"><g id="hand" transform="matrix(0.995, 0.105, -0.105, 0.995, 11.762, -6.545)"><path id="Path_18979" data-name="Path 18979" d="M-676.922,22.334S-655.9,1.995-653.839,1.309s7.084-1.6,7.084-1.6-13.027,21.939-15.769,27.424S-676.922,22.334-676.922,22.334Z" transform="translate(756.706 13.861)" fill="#b78569"></path><path id="Path_18980" data-name="Path 18980" d="M-745.314,69.587s-5.187-12.9.686-16.455,18.388-6.563,22.95-7.306c9.125-1.485,18.415-4.273,21.091.7s3.931,8.112,1.811,9.167S-721.441,82.224-745.314,69.587Z" transform="translate(787.391 -5.281)" fill="#fec12f"></path><path id="Path_18988" data-name="Path 18988" d="M-686.632,37.756l10.97-8.913s7.478,4.315,9.943,6.846c1.363,1.4,3.768,1.021,3.768,3.078s-16.1,16.474-16.1,16.474Z" transform="translate(760.933 1.183)" fill="#fec12f"></path><path id="Path_18989" data-name="Path 18989" d="M-632.829-16.917l5.142-6.856s1.485-1.143,1.257-.115a62.764,62.764,0,0,1-2.286,6.513.51.51,0,0,0-.013.388c.308,1,4.541,2.712,4.641,4.011.114,1.485-1.509,2.99-2.529,4.285-4.228,5.371-8.041,2.057-8.041,2.057s-2.971.914-2.286-3.428A11.467,11.467,0,0,1-632.829-16.917Z" transform="translate(739.353 24.317)" fill="#b78569"></path><path id="Path_18990" data-name="Path 18990" d="M-637.243-2.813-636-8.026l3.771-1.9,3.042,2.228s-.3,1.043-1.9.472a2.162,2.162,0,0,0-2.4.343l.529,1.628S-632.9-3.041-637.243-2.813Z" transform="translate(739.438 18.055)" fill="#cc9376"></path><path id="Path_18991" data-name="Path 18991" d="M-617.884-7.969l-4.842-4.056-.557,2.557,2.014,3.085A2.446,2.446,0,0,0-617.884-7.969Z" transform="translate(733.363 18.968)" fill="#cc9376"></path></g><g id="body-2" data-name="body" transform="translate(0 0)"><g id="Group_13189" data-name="Group 13189"><path id="Path_18981" data-name="Path 18981" d="M-660.608,331.445v4.6h22.653a17.136,17.136,0,0,0-11.162-7.551C-656.668,327.177-660.608,331.445-660.608,331.445Z" transform="translate(749.606 -129.113)" fill="#281617"></path><path id="Path_18982" data-name="Path 18982" d="M-694.9,178.955s50.439-3.435,66.335,1.3c5.515,1.644,9.128,70.587,9.128,70.587l-6.24,1.313s15.1,5.253,22.981,5.253,9.192,5.91,9.192,5.91l-37.431,1.313-1.308-5.253L-645,203.571l-46.618.992Z" transform="translate(764.531 -63.622)" fill="#281617"></path><path id="Path_18983" data-name="Path 18983" d="M-772.807,139.633s-15.1,2.626-18.385-26.921-4.268-53.184-4.268-53.184l18.713-9.849h16.415s13.789,4.6,15.1,11.162-3.283,32.83-1.313,37.426,9.192,19.7,9.192,19.7Z" transform="translate(808.293 -7.886)" fill="#ffab01"></path><path id="Path_18984" data-name="Path 18984" d="M-736.253,124.958l12.2-8.6,2.244-1.58s3.94,5.909,2.3,9.849-13.461,6.566-15.43,6.237S-736.253,124.958-736.253,124.958Z" transform="translate(782.572 -36.218)" fill="#cc9376"></path><path id="Path_18985" data-name="Path 18985" d="M-703.374,116.422l-.985,8.536-5.253,1.641-.985-11.819Z" transform="translate(771.361 -36.217)" fill="#b78569"></path><path id="Path_18986" data-name="Path 18986" d="M-764.653,186.738s5.909-19.041,24.294-21.668,21.668-2.626,21.668-2.626,12.475,17.071,25.608,90.611c.516,2.89-16.416,7.879-16.416,7.879l-19.7-65.66S-754.148,203.153-764.653,186.738Z" transform="translate(794.886 -56.96)" fill="#3b47bc"></path><line id="Line_259" data-name="Line 259" x2="21.996" y2="80.433" transform="translate(63.391 123.54)" fill="none" stroke="#9ac7f7" stroke-miterlimit="10" stroke-width="1.491"></line><path id="Path_18987" data-name="Path 18987" d="M-796.484,73.659s-6.566-9.521-9.192-6.895-13.132,31.517-12.475,40.709,1.3,16.273,7.879,16.744c22.981,1.641,41.038-11.49,41.038-11.49l-1.642-13.46s-26.264,1.641-28.234,3.611S-797.141,83.508-796.484,73.659Z" transform="translate(818.181 -15.122)" fill="#fec12f"></path></g><path id="Path_18992" data-name="Path 18992" d="M-764.07,30.641c-1.342,3.675-3.763,10.279-5.234,14.138,1.164.812,10.056,1.487,13.57,0a88.733,88.733,0,0,1,2.192-10.649Z" transform="translate(796.91 0.4)" fill="#b78569"></path></g><g id="head-2" data-name="head" transform="translate(31.578 5.539) rotate(11)"><path id="Path_18993" data-name="Path 18993" d="M-745.141,15.272a3.048,3.048,0,0,1-2.328,3.632l-13.422,2.919a3.054,3.054,0,0,1-3.629-2.333L-768.84-.383c-.363-1.644,1.045-7.477,3.828-8.774a17.338,17.338,0,0,1,9.643-1.257c3.875.424,5.546,4.168,5.907,5.816Z" transform="translate(768.897 10.579)" fill="#b78569"></path><path id="Path_18994" data-name="Path 18994" d="M-762.667,28.064a1.023,1.023,0,0,1-.78,1.211l-2.9.628a1.018,1.018,0,0,1-1.212-.774l-1.153-5.3a1.026,1.026,0,0,1,.777-1.216l2.9-.626a1.009,1.009,0,0,1,1.206.775Z" transform="translate(768.825 -3.584)" fill="#b78569"></path><path id="Path_18995" data-name="Path 18995" d="M-732.067,21.4a1.011,1.011,0,0,1-.772,1.213l-2.9.631a1.021,1.021,0,0,1-1.215-.781l-1.149-5.3a1.018,1.018,0,0,1,.775-1.21l2.9-.633a1.023,1.023,0,0,1,1.208.782Z" transform="translate(755.504 -0.683)" fill="#b78569"></path><path id="Path_18996" data-name="Path 18996" d="M-764.827,25.977l2.268,10.43c.512,2.36,2.582,7.332,15.9,4.426,7.887-1.709,6.34-7.443,5.923-9.349-.315-1.449-2.9-5.433-3.914-6.085-.034-.019.7,3.23.7,3.23a6.448,6.448,0,0,0-6.072-1.972c-6.048,1.313-6.653,5.153-9.332,5.671C-761.415,32.725-763.68,29.717-764.827,25.977Z" transform="translate(767.125 -5.078)" fill="#332b2b"></path><path id="Path_18997" data-name="Path 18997" d="M-742.062,35.6l4.138-.9a1.017,1.017,0,0,0,.777-1.212l-.127-.58-6.126,1.338.127.578A1.02,1.02,0,0,0-742.062,35.6Z" transform="translate(757.801 -8.343)" fill="#b78569"></path></g></g><g id="laptop" transform="translate(148.283 172.786)"><path id="Path_18998" data-name="Path 18998" d="M-662.5,119.847l-.03-.056.03-1.749h72.41v1.749s.012.038,0,.056l-.185.326c-.93,1.516-2.6,1.789-4.512,1.789H-657.8c-1.912,0-3.579-.273-4.512-1.789Z" transform="translate(662.526 -80.696)" fill="#d0dee6"></path><path id="Path_18999" data-name="Path 18999" d="M-644.517,120.67a.067.067,0,0,1,0,.049l-.18.264a2.938,2.938,0,0,1-1.059.89h-11.01c-1.84,0-3.445-.219-4.341-1.445l-.173-.267a.313.313,0,0,1-.033-.045l.019-.86h16.777Z" transform="translate(661.998 -81.225)" fill="#b6c2c9"></path><g id="Group_13193" data-name="Group 13193" transform="translate(27.255 37.75)"><rect id="Rectangle_2158" data-name="Rectangle 2158" width="36.181" height="1.236" fill="#b6c2c9"></rect></g><g id="Group_13194" data-name="Group 13194" transform="translate(17.882)"><path id="Path_19000" data-name="Path 19000" d="M-630.865,89.2l9.388-35.581a2.365,2.365,0,0,1,2.147-1.7h50.8a1.266,1.266,0,0,1,1.25,1.7L-576.664,89.2Z" transform="translate(630.865 -51.921)" fill="#d7dfe2"></path><path id="Path_19001" data-name="Path 19001" d="M-580.088,82.391a2.449,2.449,0,0,0,2.421,3.288,4.579,4.579,0,0,0,4.158-3.288,2.451,2.451,0,0,0-2.422-3.293A4.578,4.578,0,0,0-580.088,82.391Z" transform="translate(608.817 -63.748)" fill="#b6c2c9"></path></g></g><g id="fast" transform="translate(116.108 66.859)"><line id="Line_260" data-name="Line 260" x2="71.496" transform="translate(23.039)" fill="none" stroke="#c5e1f9" stroke-miterlimit="10" stroke-width="1.782"></line><line id="Line_261" data-name="Line 261" x2="71.497" transform="translate(0 6.753)" fill="none" stroke="#c5e1f9" stroke-miterlimit="10" stroke-width="1.782"></line><line id="Line_262" data-name="Line 262" x2="71.497" transform="translate(12.712 13.505)" fill="none" stroke="#c5e1f9" stroke-miterlimit="10" stroke-width="1.782"></line><rect id="Rectangle_2163" data-name="Rectangle 2163" width="9.742" height="9.742" transform="translate(8.715 40.322) rotate(-44.996)" fill="none" stroke="#c5e1f9" stroke-miterlimit="10" stroke-width="1.782"></rect></g><g id="envelope" transform="translate(258.046 16.271)"><rect id="Rectangle_2159" data-name="Rectangle 2159" width="97.822" height="56.342" transform="translate(0.01 0.057)" fill="#fec12f"></rect><path id="Path_19003" data-name="Path 19003" d="M-370.425-225.194H-468.19l12.221,10.927,8.572,7.663c1,.9,2.325,2.077,3.648,3.26l11.41,10.2,9.381,8.387a5.625,5.625,0,0,0,7.3,0l9.383-8.387,11.411-10.2,3.648-3.26,8.573-7.663Z" transform="translate(468.19 225.194)" fill="#ffab01"></path><path id="Path_19004" data-name="Path 19004" d="M-447.4-175.405c1-.865,2.325-2,3.648-3.138l11.41-9.808,9.381-8.069a5.79,5.79,0,0,1,7.3,0l9.383,8.069,11.411,9.808c1.323,1.134,2.644,2.273,3.648,3.138l8.573,7.369,12.22,10.5-12.22-10.926-8.573-7.661c-1-.9-2.325-2.082-3.648-3.262l-11.411-10.2-9.383-8.387a5.623,5.623,0,0,0-7.3,0l-9.381,8.387-11.41,10.2c-1.322,1.18-2.645,2.365-3.648,3.262l-8.572,7.661-12.221,10.926,12.221-10.5Z" transform="translate(468.19 213.931)" fill="#ffab01"></path><path id="Path_19005" data-name="Path 19005" d="M-370.425-225.194H-468.19l12.221,10.425,8.572,7.313c1,.852,2.325,1.98,3.648,3.11l11.41,9.734,9.381,8a5.824,5.824,0,0,0,7.3,0l9.383-8,11.411-9.734c1.323-1.13,2.644-2.258,3.648-3.11l8.573-7.313Z" transform="translate(468.19 225.194)" fill="#f4da80"></path></g><g id="chat_envelope" data-name="chat envelope" transform="translate(218.013)"><g id="Group_13198" data-name="Group 13198" transform="translate(0)"><rect id="Rectangle_2160" data-name="Rectangle 2160" width="60.039" height="31.787" fill="#c5e1f9"></rect><path id="Path_19006" data-name="Path 19006" d="M-534.612-189.03V-210.2h-21.167Z" transform="translate(556.341 233.327)" fill="#c5e1f9"></path></g><g id="Group_13199" data-name="Group 13199" transform="translate(10.586 11.536)"><rect id="Rectangle_2161" data-name="Rectangle 2161" width="38.871" height="2.888" fill="#eaf4fe"></rect><rect id="Rectangle_2162" data-name="Rectangle 2162" width="38.871" height="2.885" transform="translate(0 7.701)" fill="#eaf4fe"></rect></g></g><g id="chat" transform="translate(924.259 249.443)"><g id="Group_13182" data-name="Group 13182" transform="translate(-859.753 -199.212)"><g id="Group_13181" data-name="Group 13181" transform="translate(0 0)"><g id="Group_13180" data-name="Group 13180"><rect id="Rectangle_2154" data-name="Rectangle 2154" width="67.579" height="53.635" fill="#eaf4fe"></rect><rect id="Rectangle_2155" data-name="Rectangle 2155" width="67.579" height="6.391" fill="#9ac7f7"></rect><path id="Path_18961" data-name="Path 18961" d="M-698.078-154.519a1.279,1.279,0,0,0,1.279,1.278,1.281,1.281,0,0,0,1.279-1.278A1.278,1.278,0,0,0-696.8-155.8,1.276,1.276,0,0,0-698.078-154.519Z" transform="translate(760.97 157.717)" fill="#387bff"></path><path id="Path_18962" data-name="Path 18962" d="M-705.244-154.519a1.279,1.279,0,0,0,1.279,1.278,1.279,1.279,0,0,0,1.275-1.278,1.275,1.275,0,0,0-1.275-1.279A1.276,1.276,0,0,0-705.244-154.519Z" transform="translate(764.089 157.717)" fill="#fbd260"></path><path id="Path_18963" data-name="Path 18963" d="M-712.411-154.519a1.279,1.279,0,0,0,1.277,1.278,1.28,1.28,0,0,0,1.278-1.278,1.277,1.277,0,0,0-1.278-1.279A1.275,1.275,0,0,0-712.411-154.519Z" transform="translate(767.208 157.717)" fill="#eaf4fe"></path></g></g></g><g id="Group_13202" data-name="Group 13202" transform="translate(-843.469 -184.917)"><path id="Path_19007" data-name="Path 19007" d="M-780.6-95.044l8.1-2.558,8.1-2.557-3.194-4.375-3.193-4.376-4.9,6.932Z" transform="translate(780.598 123.016)" fill="#9ac7f7"></path><path id="Path_19008" data-name="Path 19008" d="M-773.141-119.965a13.92,13.92,0,0,0,13.921,13.92,13.92,13.92,0,0,0,13.92-13.92,13.921,13.921,0,0,0-13.92-13.921A13.921,13.921,0,0,0-773.141-119.965Z" transform="translate(777.353 133.886)" fill="#9ac7f7"></path><g id="Group_13201" data-name="Group 13201" transform="translate(10.147 6.056)"><path id="Path_19009" data-name="Path 19009" d="M-752.078-119.2h1.217l-.834,4.72a2.563,2.563,0,0,0-.008,1.185.551.551,0,0,0,.583.365,2.038,2.038,0,0,0,.887-.208,2.272,2.272,0,0,0,.786-.646,3.5,3.5,0,0,0,.567-1.1,5.053,5.053,0,0,0,.217-1.568,5.194,5.194,0,0,0-.436-2.228,4.2,4.2,0,0,0-1.193-1.525,4.9,4.9,0,0,0-1.785-.878,8.432,8.432,0,0,0-2.212-.278,6.476,6.476,0,0,0-2.525.487,6.337,6.337,0,0,0-2.03,1.341,6.115,6.115,0,0,0-1.348,2.028,6.588,6.588,0,0,0-.489,2.551,6.822,6.822,0,0,0,.41,2.439,4.964,4.964,0,0,0,1.192,1.838,5.328,5.328,0,0,0,1.941,1.166,8,8,0,0,0,2.657.409,6.225,6.225,0,0,0,1.149-.123,4.946,4.946,0,0,0,1.166-.365l.54,1.672a5.8,5.8,0,0,1-1.454.487,9.243,9.243,0,0,1-1.7.139,9.711,9.711,0,0,1-3.128-.487,7.008,7.008,0,0,1-2.489-1.446,6.583,6.583,0,0,1-1.645-2.377,8.464,8.464,0,0,1-.594-3.283,8.37,8.37,0,0,1,.681-3.432,7.942,7.942,0,0,1,1.829-2.611,8.082,8.082,0,0,1,2.664-1.663,8.826,8.826,0,0,1,3.2-.583,9.322,9.322,0,0,1,2.978.461,7.1,7.1,0,0,1,2.385,1.324,6.1,6.1,0,0,1,1.585,2.107,6.66,6.66,0,0,1,.575,2.83,5.559,5.559,0,0,1-.392,2.09,5.214,5.214,0,0,1-1.079,1.691,5.243,5.243,0,0,1-1.6,1.131,4.653,4.653,0,0,1-1.959.417,3.263,3.263,0,0,1-.81-.1,1.444,1.444,0,0,1-.626-.321,1.321,1.321,0,0,1-.376-.593,2.2,2.2,0,0,1-.07-.905h-.069a8.851,8.851,0,0,1-.567.714,4.14,4.14,0,0,1-.669.618,3.067,3.067,0,0,1-.8.428,2.843,2.843,0,0,1-.957.156,1.831,1.831,0,0,1-.8-.182,1.979,1.979,0,0,1-.662-.514,2.526,2.526,0,0,1-.445-.8,3.165,3.165,0,0,1-.164-1.044,6.455,6.455,0,0,1,.348-2.1,6.249,6.249,0,0,1,.949-1.8,4.993,4.993,0,0,1,1.393-1.262,3.2,3.2,0,0,1,1.681-.478,2.572,2.572,0,0,1,1.027.182,3.137,3.137,0,0,1,.767.478Zm-1.1,2.108a1.873,1.873,0,0,0-.471-.3,1.564,1.564,0,0,0-.609-.1,1.722,1.722,0,0,0-.967.294,2.873,2.873,0,0,0-.766.768,3.8,3.8,0,0,0-.5,1.054,3.928,3.928,0,0,0-.173,1.14,1.71,1.71,0,0,0,.235.941.888.888,0,0,0,.81.365,1.108,1.108,0,0,0,.522-.149,2.509,2.509,0,0,0,.54-.391,4.788,4.788,0,0,0,.5-.556,4.7,4.7,0,0,0,.437-.665Z" transform="translate(762.633 123.164)" fill="#eef6fd"></path></g></g></g><g id="play" transform="translate(163.376 22.148)"><path id="Path_19010" data-name="Path 19010" d="M-624.714-214.787A11.135,11.135,0,0,0-635.8-203.619,11.128,11.128,0,0,0-624.7-192.465a11.132,11.132,0,0,0,11.092-11.168A11.131,11.131,0,0,0-624.714-214.787Z" transform="translate(635.805 214.787)" fill="#fd2227"></path><path id="Path_19011" data-name="Path 19011" d="M-613.979-198.35l-7.376,4.287a.313.313,0,0,1-.127.05.439.439,0,0,1-.015-.132l-.011-8.573c.006-.077.015-.124.016-.139a.383.383,0,0,1,.131.056l7.382,4.28c.069.042.1.07.117.079A.361.361,0,0,1-613.979-198.35Z" transform="translate(629.583 209.595)" fill="#fff"></path></g><g id="bulb" transform="matrix(0.985, -0.174, 0.174, 0.985, 174.475, 68.073)"><path id="Path_19012" data-name="Path 19012" d="M-557.786-108.714c7.9-12.9,6.527-28.113-7.548-36.728s-28.242-2.911-36.138,9.99c-6.159,10.061-1.241,17.874-.36,29.886.173,2.377-4.979,8.134-4.979,8.134l17.6,10.771s2.782-7.209,4.978-8.133C-573.137-99.479-563.944-98.65-557.786-108.714Z" transform="translate(609.856 149.549)" fill="#fec12f"></path><path id="Path_19013" data-name="Path 19013" d="M-596.831-94.982c-1.216-16.6-8.011-27.394.5-41.3a47.975,47.975,0,0,1,6.182-8.083A30.962,30.962,0,0,0-601.472-133.2c-6.159,10.061-1.241,17.874-.36,29.886.173,2.377-4.979,8.134-4.979,8.134l8.072,4.94C-597.6-92.03-596.743-93.807-596.831-94.982Z" transform="translate(609.856 147.293)" fill="#ffab01"></path><path id="Path_19014" data-name="Path 19014" d="M-609.459-57.6l-1.488,2.426a8.536,8.536,0,0,0,2.826,11.738l3.64,2.228a8.539,8.539,0,0,0,11.739-2.826l1.483-2.425Z" transform="translate(612.203 109.534)" fill="#3d7aa8"></path><path id="Path_19015" data-name="Path 19015" d="M-574.933-114.2l5.011-1.937.562,5.348,5.015-1.936.564,5.348,5.02-1.931.563,5.349,5.022-1.929.574,5.354" transform="translate(595.983 135.008)" fill="none" stroke="#f4da80" stroke-miterlimit="10" stroke-width="3.779"></path><path id="Path_19016" data-name="Path 19016" d="M-582.455-103.583l-3.331,14.5-9.347,15.272" transform="translate(604.774 129.545)" fill="none" stroke="#f4da80" stroke-miterlimit="10" stroke-width="3.779"></path><path id="Path_19017" data-name="Path 19017" d="M-564.5-88.789l-11.4,9.562-9.348,15.273" transform="translate(600.47 123.107)" fill="none" stroke="#f4da80" stroke-miterlimit="10" stroke-width="3.779"></path><rect id="Rectangle_2164" data-name="Rectangle 2164" width="2.217" height="13.339" transform="translate(5.774 58.107) rotate(-58.523)" fill="#34688f"></rect><rect id="Rectangle_2165" data-name="Rectangle 2165" width="2.216" height="9.604" transform="matrix(0.522, -0.853, 0.853, 0.522, 3.684, 61.52)" fill="#34688f"></rect></g></svg>