<svg width="169" height="38" viewBox="0 0 169 38" fill="none" xmlns="http://www.w3.org/2000/svg">
<path d="M105.736 15.2414V4.76147H110.546V26.5601C110.546 28.2791 110.948 28.9186 112.027 28.9186C112.361 28.9093 112.695 28.8825 113.027 28.8383V32.7217C112.264 32.9624 111.467 33.0701 110.668 33.0401C109.508 33.0401 108.597 32.8408 107.867 32.4007C106.987 31.8 106.427 31.1217 106.228 30.0706C104.817 32.2039 102.497 33.2395 99.2976 33.2395C97.9515 33.2667 96.6148 33.0098 95.3747 32.4857C94.1346 31.9615 93.0189 31.1819 92.1004 30.1975C90.1794 28.16 89.2189 25.5582 89.2189 22.5602C89.2189 19.5623 90.1794 16.9216 92.1004 14.9204C93.0191 13.9365 94.1349 13.1573 95.375 12.6336C96.6151 12.1099 97.9517 11.8534 99.2976 11.881C102.539 11.881 104.978 13.3204 105.736 15.2414ZM104.297 26.9588C105.452 25.785 106.099 24.2043 106.099 22.5576C106.099 20.911 105.452 19.3303 104.297 18.1565C103.726 17.5847 103.044 17.1351 102.294 16.8351C101.543 16.5351 100.74 16.391 99.9318 16.4116C99.1361 16.3943 98.3454 16.5418 97.6094 16.8448C96.8734 17.1478 96.208 17.5996 95.655 18.172C94.534 19.3319 93.9722 20.8101 93.9722 22.5732C93.9722 24.3362 94.534 25.8119 95.655 26.9743C96.2084 27.5462 96.8739 27.9977 97.6098 28.3007C98.3457 28.6036 99.1362 28.7514 99.9318 28.7348C100.742 28.7504 101.547 28.601 102.297 28.2957C103.047 27.9903 103.728 27.5355 104.297 26.9588Z" fill="white"/>
<path d="M54.2842 32.6388V4.76147H59.286V15.6349H72.6836V4.76147H77.6414V32.6388H72.681V20.1603H59.286V32.6388H54.2842Z" fill="white"/>
<path d="M132.651 15.3602L129.704 18.441C129.055 17.7326 128.263 17.1701 127.38 16.7907C126.498 16.4113 125.544 16.2238 124.584 16.2405C123.757 16.2192 122.935 16.3679 122.168 16.6774C121.401 16.9869 120.706 17.4506 120.125 18.0398C118.995 19.2735 118.367 20.8864 118.367 22.56C118.367 24.2336 118.995 25.8465 120.125 27.0802C120.704 27.6671 121.396 28.1295 122.159 28.4389C122.923 28.7483 123.742 28.8983 124.565 28.8795C125.526 28.8962 126.479 28.7086 127.362 28.3293C128.245 27.9499 129.037 27.3874 129.686 26.6789L132.645 29.7572C130.486 32.0872 127.807 33.2392 124.565 33.2392C121.487 33.2392 118.885 32.2373 116.768 30.1973C114.65 28.1572 113.607 25.5994 113.607 22.56C113.607 19.5206 114.642 16.999 116.768 14.9615C118.893 12.9241 121.487 11.8807 124.565 11.8807C127.812 11.8807 130.481 13.0457 132.651 15.3602Z" fill="white"/>
<path d="M133.342 22.56C133.315 21.1402 133.586 19.7306 134.137 18.4219C134.688 17.1132 135.507 15.9345 136.542 14.9615C138.662 12.9215 141.261 11.8807 144.339 11.8807C147.418 11.8807 150.02 12.9163 152.14 14.9615C153.152 15.9513 153.956 17.1333 154.505 18.4381C155.054 19.743 155.337 21.1443 155.337 22.56C155.337 23.9756 155.054 25.377 154.505 26.6819C153.956 27.9867 153.152 29.1687 152.14 30.1584C150.02 32.2037 147.42 33.2392 144.339 33.2392C141.259 33.2392 138.662 32.2037 136.542 30.1584C135.508 29.1852 134.689 28.0064 134.138 26.6978C133.587 25.3891 133.316 23.9797 133.342 22.56ZM148.779 27.0802C149.37 26.4876 149.835 25.7818 150.147 25.0051C150.458 24.2283 150.61 23.3966 150.592 22.56C150.613 21.7291 150.463 20.9027 150.151 20.1322C149.839 19.3617 149.372 18.6635 148.779 18.0812C147.595 16.9023 145.991 16.2405 144.32 16.2405C142.649 16.2405 141.045 16.9023 139.861 18.0812C139.283 18.6721 138.829 19.373 138.527 20.1423C138.224 20.9115 138.079 21.7337 138.1 22.56C138.066 24.2403 138.699 25.8658 139.861 27.0802C141.058 28.2346 142.657 28.8796 144.32 28.8796C145.983 28.8796 147.582 28.2346 148.779 27.0802Z" fill="white"/>
<path d="M159.28 17.2212H155.808V12.8615H159.28V7.16589H164.08V12.8615H168.279V17.2212H164.08V25.8785C164.08 28.0791 164.838 28.8791 166.599 28.8791C167.163 28.8886 167.727 28.8348 168.279 28.7186V32.998C167.464 33.1716 166.632 33.2523 165.799 33.2388C161.439 33.2388 159.28 30.958 159.28 26.3989V17.2212Z" fill="white"/>
<path d="M81.3381 12.8622H86.1353V32.6388H81.3381V12.8622ZM81.3381 4.76147V9.56131H86.1353V4.76147H81.3381Z" fill="white"/>
<path d="M5.43671 16.2868H0V0H16.2842V5.43671H5.43671V16.2868ZM21.7209 0V10.8579H10.8579V21.7132H0V38H16.2842V32.5633H5.43671V27.1266H16.2842V16.2868H27.1421V5.42894H32.5788V32.5711H27.1421V21.7132H21.7054V38H37.9896V0H21.7209Z" fill="#D02C2F"/>
</svg>
